<svg width="504" height="382" viewBox="0 0 504 382" fill="none" xmlns="http://www.w3.org/2000/svg">
<line x1="345.831" y1="78.864" x2="459.933" y2="78.864" stroke="#17362A" stroke-width="1.5"/>
<line x1="345.831" y1="95.5618" x2="459.933" y2="95.5618" stroke="#17362A" stroke-width="1.5"/>
<line x1="345.831" y1="112.26" x2="459.933" y2="112.26" stroke="#17362A" stroke-width="1.5"/>
<line x1="345.831" y1="128.958" x2="459.933" y2="128.958" stroke="#17362A" stroke-width="1.5"/>
<line x1="428.957" y1="72.3782" x2="428.957" y2="186.48" stroke="#17362A" stroke-width="1.5"/>
<line x1="412.259" y1="72.3782" x2="412.259" y2="186.48" stroke="#17362A" stroke-width="1.5"/>
<line x1="395.561" y1="72.3782" x2="395.561" y2="186.48" stroke="#17362A" stroke-width="1.5"/>
<line x1="378.863" y1="72.3782" x2="378.863" y2="186.48" stroke="#17362A" stroke-width="1.5"/>
<line x1="362.165" y1="72.3782" x2="362.165" y2="186.48" stroke="#17362A" stroke-width="1.5"/>
<line x1="445.655" y1="72.3782" x2="445.655" y2="186.48" stroke="#17362A" stroke-width="1.5"/>
<line x1="345.831" y1="145.655" x2="459.933" y2="145.655" stroke="#17362A" stroke-width="1.5"/>
<line x1="345.831" y1="162.353" x2="459.933" y2="162.353" stroke="#17362A" stroke-width="1.5"/>
<line x1="345.831" y1="179.051" x2="459.933" y2="179.051" stroke="#17362A" stroke-width="1.5"/>
<rect x="22.2576" y="162.638" width="68.1207" height="197.55" fill="#1C1C1C"/>
<rect x="92.0812" y="86.8539" width="68.1207" height="273.334" fill="#1C1C1C"/>
<rect x="161.905" y="128.578" width="68.1207" height="231.61" fill="#1C1C1C"/>
<rect x="231.729" y="215.432" width="68.1207" height="144.756" fill="#1C1C1C"/>
<path d="M20.6193 18.6684C19.6429 17.6921 18.06 17.6921 17.0837 18.6684L1.17382 34.5784C0.197507 35.5546 0.197507 37.1376 1.17382 38.1139C2.15013 39.0902 3.73304 39.0902 4.70935 38.1139L18.8515 23.9717L32.9936 38.1139C33.9699 39.0902 35.5528 39.0902 36.5292 38.1139C37.5055 37.1376 37.5055 35.5546 36.5292 34.5784L20.6193 18.6684ZM18.8515 367L21.3515 367L21.3515 20.4362L18.8515 20.4362L16.3515 20.4362L16.3515 367L18.8515 367Z" fill="#1C1C1C"/>
<path d="M366.332 365.362C367.308 364.385 367.308 362.803 366.332 361.826L350.422 345.916C349.445 344.94 347.862 344.94 346.886 345.916C345.91 346.893 345.91 348.476 346.886 349.452L361.028 363.594L346.886 377.736C345.91 378.712 345.91 380.295 346.886 381.272C347.862 382.248 349.445 382.248 350.422 381.272L366.332 365.362ZM18 363.594L18 366.094L364.564 366.094L364.564 363.594L364.564 361.094L18 361.094L18 363.594Z" fill="#1C1C1C"/>
<line x1="55.1824" y1="182.094" x2="125.006" y2="101.201" stroke="#17362A" stroke-width="3"/>
<line x1="124.914" y1="99.8882" x2="195.664" y2="156.63" stroke="#17362A" stroke-width="3"/>
<line x1="192.819" y1="153.967" x2="266.9" y2="235.712" stroke="#17362A" stroke-width="3"/>
<circle cx="55.8921" cy="182.649" r="3.83179" fill="#17362A"/>
<circle cx="125.716" cy="101.755" r="3.83179" fill="#17362A"/>
<circle cx="194.688" cy="157.103" r="3.83179" fill="#17362A"/>
<circle cx="265.363" cy="236.293" r="3.83179" fill="#17362A"/>
<circle cx="345.405" cy="76.21" r="76.21" fill="#1C1C1C"/>
<path d="M421.615 76.21C421.615 64.8127 419.058 53.5605 414.134 43.2819C409.21 33.0034 402.042 23.9602 393.16 16.8183L345.405 76.21H421.615Z" fill="#17362A"/>
<rect x="350.088" y="221.392" width="21.2877" height="21.2877" fill="#1C1C1C"/>
<rect x="373.93" y="221.392" width="129.429" height="9.36659" fill="#163327"/>
<rect x="373.93" y="233.313" width="129.429" height="9.36659" fill="#14261E"/>
<rect x="350.088" y="250.343" width="21.2877" height="21.2877" fill="#1C1C1C"/>
<rect x="373.93" y="250.343" width="129.429" height="9.36659" fill="#163327"/>
<rect x="373.93" y="262.265" width="129.429" height="9.36659" fill="#14261E"/>
<path d="M457.378 324.425C457.378 344.176 441.366 360.188 421.615 360.188C401.863 360.188 385.852 344.176 385.852 324.425C385.852 304.673 401.863 288.661 421.615 288.661C441.366 288.661 457.378 304.673 457.378 324.425ZM396.581 324.425C396.581 338.251 407.789 349.459 421.615 349.459C435.441 349.459 446.649 338.251 446.649 324.425C446.649 310.599 435.441 299.39 421.615 299.39C407.789 299.39 396.581 310.599 396.581 324.425Z" fill="#163327"/>
<path d="M457.378 324.425C457.378 318.708 456.008 313.074 453.381 307.996C450.755 302.918 446.95 298.543 442.284 295.239C437.618 291.935 432.229 289.797 426.567 289.006C420.905 288.214 415.135 288.792 409.743 290.689C404.35 292.587 399.49 295.75 395.572 299.914C391.654 304.077 388.791 309.119 387.223 314.616C385.655 320.114 385.428 325.908 386.561 331.512C387.694 337.115 390.154 342.366 393.734 346.823L402.098 340.103C399.592 336.983 397.87 333.308 397.077 329.385C396.284 325.463 396.443 321.407 397.54 317.559C398.638 313.71 400.642 310.181 403.385 307.267C406.128 304.353 409.529 302.138 413.304 300.81C417.079 299.481 421.118 299.077 425.081 299.631C429.045 300.186 432.817 301.682 436.083 303.995C439.349 306.308 442.013 309.37 443.851 312.924C445.69 316.479 446.649 320.423 446.649 324.425H457.378Z" fill="#1C1C1C"/>
</svg>
